<svg width="311" height="44" viewBox="0 0 311 44" fill="none" xmlns="http://www.w3.org/2000/svg">
<g clip-path="url(#clip0_155_1066)">
<path d="M35.4586 23.0682L39.7073 19.8363L36.8395 3.50305L31.6263 8.66548L31.8857 10.1513L36.0248 6.05535L38.3483 19.3121L34.6987 22.0921L34.0411 22.591L34.2566 23.3864L36.2477 30.7757L24.1992 36.8275L23.0484 37.4059L23.6731 38.523L26.0477 42.7672H16.8634L14.8322 40.4932H13.1699L16.3044 43.9999H28.1593L24.7618 37.9265L37.7126 31.4228L35.4586 23.0682Z" fill="white"/>
<path d="M30.9761 27.9198L18.0289 34.4198L21.4265 40.4933H9.56793L0 29.7924L30.103 0L32.9708 16.3332L28.7221 19.5652L22.0293 24.6589L29.1349 21.0835L30.9761 27.9198Z" fill="#FFBE00"/>
</g>
<path d="M194.387 20.6182L193.02 25.5934H198.072L196.913 29.7406H191.858L189.127 39.632H183L189.438 16.4011H200.606L199.443 20.6182H194.387Z" fill="#FFC042"/>
<path d="M213.815 16.4011L211.402 39.632H205.495L205.938 36.0147H202.181L200.568 39.632H195.497L205.911 16.4011H213.815ZM206.373 32.3643L207.328 24.2318L203.775 32.3643H206.373Z" fill="#FFC042"/>
<path d="M214.466 37.0561C214.471 36.7884 214.505 36.5219 214.569 36.2613L215.796 31.8123H221.908L220.87 35.6467C220.833 35.8003 220.81 35.9567 220.802 36.1141C220.802 36.5115 221.075 36.7102 221.824 36.7102C222.68 36.7102 223.055 36.379 223.26 35.6467L224.49 31.2309C224.527 31.0898 224.55 30.9457 224.559 30.8004C224.559 30.3036 224.252 30.0055 223.669 30.0055H220.597C218.242 30.0055 217.045 29.0414 217.045 27.713C217.046 27.4776 217.08 27.2435 217.147 27.0175L219.041 20.081C219.961 16.7691 224.028 16 227.441 16C230.788 16 233.965 16.6329 233.965 18.9218C233.951 19.2021 233.904 19.4799 233.825 19.7498L232.496 24.5667H226.384L227.52 20.3827C227.557 20.2416 227.58 20.0975 227.588 19.9522C227.588 19.5216 227.281 19.3229 226.532 19.3229C225.676 19.3229 225.267 19.6541 225.062 20.3827L223.9 24.6992C223.863 24.8402 223.84 24.9844 223.832 25.1297C223.824 25.2421 223.843 25.3548 223.886 25.4593C223.929 25.5639 223.996 25.6577 224.081 25.734C224.166 25.8102 224.268 25.8669 224.379 25.8999C224.49 25.9328 224.607 25.9413 224.721 25.9246H227.861C230.22 25.9246 231.413 26.8887 231.413 28.2171C231.413 28.4524 231.378 28.6865 231.311 28.9126L229.364 35.9043C228.444 39.2309 224.608 40 220.87 40C217.81 40 214.466 39.3634 214.466 37.0561Z" fill="#FFC042"/>
<path d="M250.151 20.6182H245.864L240.589 39.632H234.477L239.733 20.6182H235.431L236.593 16.4011H251.31L250.151 20.6182Z" fill="#FFC042"/>
<path d="M258.584 20.6182L257.225 25.5934H262.28L261.118 29.7406H256.055L253.324 39.632H247.212L253.631 16.4011H264.799L263.636 20.6182H258.584Z" fill="#F7F5FA"/>
<path d="M273.164 20.6182L271.797 25.5934H276.853L275.69 29.7406H270.638L269.067 35.4149H274.119L272.96 39.632H261.792L268.23 16.4011H279.379L278.22 20.6182H273.164Z" fill="#F7F5FA"/>
<path d="M288.085 20.6182L286.722 25.5934H291.773L290.615 29.7406H285.559L283.987 35.4149H289.035L287.899 39.632H276.716L283.135 16.4011H294.303L293.14 20.6182H288.085Z" fill="#F7F5FA"/>
<path d="M309.837 20.6182H305.535L300.279 39.632H294.163L299.423 20.6182H295.121L296.284 16.4011H311L309.837 20.6182Z" fill="#F7F5FA"/>
<defs>
<clipPath id="clip0_155_1066">
<rect width="40" height="44" fill="white"/>
</clipPath>
</defs>
</svg>
